# xmcd CD database file
#
# Track frame offsets:
#	183
#	46970
#	65933
#	87908
#	125133
#	139483
#
# Disc length: 2142 seconds
#
# Revision: 0
# Processed by: cddbd v1.5PL3 Copyright (c) Steve Scherf et al.
# Submitted via: CDex 1.51
#
DISCID=5f085c06
DTITLE=Judy Schomper - Adhesion
DYEAR=1989
DGENRE=Jazz
TTITLE0=Reflections
TTITLE1=Sinta
TTITLE2=Goodbye for Love
TTITLE3=Lullaby
TTITLE4=Adhesion
TTITLE5=Second Part of the Concerto for Electric Violin and Orchestra
EXTD=YEAR: 1989
EXTT0=
EXTT1=
EXTT2=
EXTT3=
EXTT4=
EXTT5=
PLAYORDER=
